<mxfile host="app.diagrams.net" modified="2021-10-25T08:58:33.361Z" agent="5.0 (Macintosh; Intel Mac OS X 10_15_7) AppleWebKit/537.36 (KHTML, like Gecko) Chrome/95.0.4638.54 Safari/537.36" etag="KxFJkpI7UjkXzuWRUy59" version="15.5.8" type="github">
  <diagram id="AAKQJxX1rdBMzBdHqZ1a" name="Page-1">
    <mxGraphModel dx="988" dy="572" grid="1" gridSize="10" guides="1" tooltips="1" connect="1" arrows="1" fold="1" page="1" pageScale="1" pageWidth="827" pageHeight="1169" math="0" shadow="0">
      <root>
        <mxCell id="0" />
        <mxCell id="1" parent="0" />
        <mxCell id="Wx-2bbFNoUFi7-NbO0jo-1" value="Current Peer&amp;nbsp;" style="rounded=0;whiteSpace=wrap;html=1;" vertex="1" parent="1">
          <mxGeometry x="280" y="390" width="120" height="60" as="geometry" />
        </mxCell>
        <mxCell id="Wx-2bbFNoUFi7-NbO0jo-2" value="Peer" style="rounded=0;whiteSpace=wrap;html=1;" vertex="1" parent="1">
          <mxGeometry x="160" y="490" width="120" height="60" as="geometry" />
        </mxCell>
        <mxCell id="Wx-2bbFNoUFi7-NbO0jo-3" value="Peer" style="rounded=0;whiteSpace=wrap;html=1;" vertex="1" parent="1">
          <mxGeometry x="400" y="490" width="120" height="60" as="geometry" />
        </mxCell>
        <mxCell id="Wx-2bbFNoUFi7-NbO0jo-4" value="Peer" style="rounded=0;whiteSpace=wrap;html=1;" vertex="1" parent="1">
          <mxGeometry x="40" y="595" width="120" height="60" as="geometry" />
        </mxCell>
        <mxCell id="Wx-2bbFNoUFi7-NbO0jo-5" value="Peer" style="rounded=0;whiteSpace=wrap;html=1;" vertex="1" parent="1">
          <mxGeometry x="280" y="595" width="120" height="60" as="geometry" />
        </mxCell>
        <mxCell id="Wx-2bbFNoUFi7-NbO0jo-6" value="" style="endArrow=classic;html=1;rounded=0;entryX=0;entryY=1;entryDx=0;entryDy=0;exitX=0.5;exitY=0;exitDx=0;exitDy=0;" edge="1" parent="1" source="Wx-2bbFNoUFi7-NbO0jo-2" target="Wx-2bbFNoUFi7-NbO0jo-1">
          <mxGeometry width="50" height="50" relative="1" as="geometry">
            <mxPoint x="170" y="470" as="sourcePoint" />
            <mxPoint x="220" y="420" as="targetPoint" />
          </mxGeometry>
        </mxCell>
        <mxCell id="Wx-2bbFNoUFi7-NbO0jo-7" value="" style="endArrow=classic;html=1;rounded=0;entryX=0;entryY=1;entryDx=0;entryDy=0;exitX=0.5;exitY=0;exitDx=0;exitDy=0;" edge="1" parent="1">
          <mxGeometry width="50" height="50" relative="1" as="geometry">
            <mxPoint x="100" y="590" as="sourcePoint" />
            <mxPoint x="160" y="550" as="targetPoint" />
          </mxGeometry>
        </mxCell>
        <mxCell id="Wx-2bbFNoUFi7-NbO0jo-8" value="" style="endArrow=classic;html=1;rounded=0;entryX=1;entryY=1;entryDx=0;entryDy=0;" edge="1" parent="1" target="Wx-2bbFNoUFi7-NbO0jo-1">
          <mxGeometry width="50" height="50" relative="1" as="geometry">
            <mxPoint x="440" y="490" as="sourcePoint" />
            <mxPoint x="490" y="440" as="targetPoint" />
          </mxGeometry>
        </mxCell>
        <mxCell id="Wx-2bbFNoUFi7-NbO0jo-9" value="" style="endArrow=classic;html=1;rounded=0;entryX=1;entryY=1;entryDx=0;entryDy=0;" edge="1" parent="1">
          <mxGeometry width="50" height="50" relative="1" as="geometry">
            <mxPoint x="320" y="590" as="sourcePoint" />
            <mxPoint x="280" y="550" as="targetPoint" />
          </mxGeometry>
        </mxCell>
        <mxCell id="Wx-2bbFNoUFi7-NbO0jo-10" value="1" style="text;html=1;strokeColor=none;fillColor=none;align=center;verticalAlign=middle;whiteSpace=wrap;rounded=0;" vertex="1" parent="1">
          <mxGeometry x="220" y="390" width="60" height="30" as="geometry" />
        </mxCell>
        <mxCell id="Wx-2bbFNoUFi7-NbO0jo-11" value="2" style="text;html=1;strokeColor=none;fillColor=none;align=center;verticalAlign=middle;whiteSpace=wrap;rounded=0;" vertex="1" parent="1">
          <mxGeometry x="100" y="490" width="60" height="30" as="geometry" />
        </mxCell>
        <mxCell id="Wx-2bbFNoUFi7-NbO0jo-12" value="3&lt;span style=&quot;color: rgba(0 , 0 , 0 , 0) ; font-family: monospace ; font-size: 0px&quot;&gt;%3CmxGraphModel%3E%3Croot%3E%3CmxCell%20id%3D%220%22%2F%3E%3CmxCell%20id%3D%221%22%20parent%3D%220%22%2F%3E%3CmxCell%20id%3D%222%22%20value%3D%222%22%20style%3D%22text%3Bhtml%3D1%3BstrokeColor%3Dnone%3BfillColor%3Dnone%3Balign%3Dcenter%3BverticalAlign%3Dmiddle%3BwhiteSpace%3Dwrap%3Brounded%3D0%3B%22%20vertex%3D%221%22%20parent%3D%221%22%3E%3CmxGeometry%20x%3D%2260%22%20y%3D%22480%22%20width%3D%2260%22%20height%3D%2230%22%20as%3D%22geometry%22%2F%3E%3C%2FmxCell%3E%3C%2Froot%3E%3C%2FmxGraphModel%3E&lt;/span&gt;" style="text;html=1;strokeColor=none;fillColor=none;align=center;verticalAlign=middle;whiteSpace=wrap;rounded=0;" vertex="1" parent="1">
          <mxGeometry x="340" y="490" width="60" height="30" as="geometry" />
        </mxCell>
        <mxCell id="Wx-2bbFNoUFi7-NbO0jo-13" value="4" style="text;html=1;strokeColor=none;fillColor=none;align=center;verticalAlign=middle;whiteSpace=wrap;rounded=0;" vertex="1" parent="1">
          <mxGeometry x="160" y="595" width="60" height="30" as="geometry" />
        </mxCell>
        <mxCell id="Wx-2bbFNoUFi7-NbO0jo-14" value="5" style="text;html=1;strokeColor=none;fillColor=none;align=center;verticalAlign=middle;whiteSpace=wrap;rounded=0;" vertex="1" parent="1">
          <mxGeometry x="400" y="595" width="60" height="30" as="geometry" />
        </mxCell>
        <mxCell id="Wx-2bbFNoUFi7-NbO0jo-15" value="&lt;h1&gt;PeerList&lt;/h1&gt;&lt;p&gt;1-&amp;gt;2-&amp;gt;3-&amp;gt;4-&amp;gt;5&lt;/p&gt;&lt;p&gt;The diagram represents the order of peers based on Breadth First Seach (BFS)&lt;/p&gt;" style="text;html=1;strokeColor=none;fillColor=none;spacing=5;spacingTop=-20;whiteSpace=wrap;overflow=hidden;rounded=0;" vertex="1" parent="1">
          <mxGeometry x="40" y="330" width="190" height="120" as="geometry" />
        </mxCell>
        <mxCell id="Wx-2bbFNoUFi7-NbO0jo-16" value="Connects" style="text;html=1;strokeColor=none;fillColor=none;align=center;verticalAlign=middle;whiteSpace=wrap;rounded=0;" vertex="1" parent="1">
          <mxGeometry x="210" y="450" width="60" height="30" as="geometry" />
        </mxCell>
        <mxCell id="Wx-2bbFNoUFi7-NbO0jo-17" value="Connects" style="text;html=1;strokeColor=none;fillColor=none;align=center;verticalAlign=middle;whiteSpace=wrap;rounded=0;" vertex="1" parent="1">
          <mxGeometry x="80" y="550" width="60" height="30" as="geometry" />
        </mxCell>
        <mxCell id="Wx-2bbFNoUFi7-NbO0jo-18" value="Connects" style="text;html=1;strokeColor=none;fillColor=none;align=center;verticalAlign=middle;whiteSpace=wrap;rounded=0;" vertex="1" parent="1">
          <mxGeometry x="240" y="560" width="60" height="30" as="geometry" />
        </mxCell>
        <mxCell id="Wx-2bbFNoUFi7-NbO0jo-19" value="Connects" style="text;html=1;strokeColor=none;fillColor=none;align=center;verticalAlign=middle;whiteSpace=wrap;rounded=0;" vertex="1" parent="1">
          <mxGeometry x="354" y="460" width="60" height="30" as="geometry" />
        </mxCell>
      </root>
    </mxGraphModel>
  </diagram>
</mxfile>
